# xmcd
#
# Track frame offsets:
#	150
#	15275
#	31720
#	46146
#	63444
#	79124
#	94058
#	108437
#	125132
#	141360
#	158651
#	176654
#	191624
#	208261
#	223692
#	238712
#	256812
#	269195
#	285068
#	299970
#	315532
#
# Disc length: 4469 seconds
#
# Revision: 2
# Processed by: cddbd v1.5.2PL0 Copyright (c) Steve Scherf et al.
# Submitted via: audiograbber 1.83.01
#
DISCID=38117315
DTITLE=Various Artist - Schlagersommer 2011 - Stars In Kaernten 
DYEAR=2011
DGENRE=
TTITLE0=Howard Carpendale - Noch Immer Mittendrin
TTITLE1=Andrea Berg - Du Kannst Noch Nicht Mal Richtig Luegen
TTITLE2=Nockalm Quintett - Mein Wunder Der Liebe
TTITLE3=Simone - Ich Moecht Niemals Deine Traenen Sehn
TTITLE4=Semino Rossi - Der Himmel Laesst Uns Nie Allein
TTITLE5=Andreas Gabalier - So Liab Hob I Di - Radio Edit
TTITLE6=Elisabeth Engstler - Schenk Mir Dein Laecheln
TTITLE7=Seer - Bist Du's?
TTITLE8=Marc Pircher - Du Bist Wie Ein Diamant
TTITLE9=Andy Borg - Zum Teufel Mit Der Einsamkeit - Album-Version
TTITLE10=Monika Martin - La Luna Blu
TTITLE11=Udo Wenders - Ein Brief Aus Avignon
TTITLE12=Alexandra Lexer - Ein Feuerwerk Der Liebe - Radio Version
TTITLE13=Die Wörtherseer - Una Notte Con Te
TTITLE14=Marco Ventre and Band - Ganz Viel Von Dir
TTITLE15=Klostertaler - O-HO-E-YO - S'bleibt Immer So
TTITLE16=Francine Jodi - Du Bist Mein Held
TTITLE17=Hansi Hinterseer - Dieses Herz Schenk Ich Dir
TTITLE18=Gilbert - So Bist Nur Du
TTITLE19=Die jungen Zillertaler - So A Schoener Tag - Fliegerlied - Radio Edit
TTITLE20=Nik P. - Gloria - Remix 2007
EXTD=
EXTT0=
EXTT1=
EXTT2=
EXTT3=
EXTT4=
EXTT5=
EXTT6=
EXTT7=
EXTT8=
EXTT9=
EXTT10=
EXTT11=
EXTT12=
EXTT13=
EXTT14=
EXTT15=
EXTT16=
EXTT17=
EXTT18=
EXTT19=
EXTT20=
PLAYORDER=
